<!-- icon666.com - MILLIONS vector ICONS FREE --><svg id="svg8" viewBox="0 0 6.3499999 6.3500002" xmlns="http://www.w3.org/2000/svg" xmlns:svg="http://www.w3.org/2000/svg"><g id="layer1" transform="translate(0 -290.65)"><path id="path823" d="m14.003906.99804688c-1.363603-.0306141-1.363603 2.03061412 0 2.00000002 3.87784 0 6.998053 3.1202138 6.998047 6.9980469.02893 1.3040782 1.971066 1.3040782 2 0 .000008-4.9587024-4.039321-8.99804692-8.998047-8.99804692zm-10.0019529.00781252c-2.0385903 0-3.51324105 2.0700209-2.8359375 3.9941406 1.3491339 3.8325921 2.4326687 6.837819 6.6953125 11.123047 4.2504979 4.27302 7.0707329 5.397266 11.2207029 6.732422 1.909824.614438 3.91211-.849334 3.91211-2.855469v-2.001953c0-.79268-.309257-1.555361-.871094-2.117188l-2-2.001953c-.799124-.799105-1.990131-1.084621-3.070313-.722656l-2.392578.804688c-.108325-.05934-.177551-.08611-.501953-.324219-.475535-.349607-1.157149-.9123-2.044922-1.78711-1.637678-1.61382-1.99463-2.4168589-2.058593-2.5468746l.789062-2.3554688c.361939-1.0801511.07647-2.2711692-.722656-3.0703125l-2.0019534-2c-.5618574-.5619023-1.3245744-.8710937-2.1171875-.8710937zm-.0019531 1.9921875h2.0019531c.2645254 0 .5155219.109347.7011719.2949219l2 2.0019531c.2716573.271748.3711405.6618868.2519531 1.0175781l-.9453125 2.8203125c-.073111.2157823-.070355.45006.00781.6640625.2069632.562772.7929464 1.603844 2.6933599 3.476563.945547.931766 1.696904 1.552687 2.265624 1.970703.568721.418053.886002.613103 1.226563.738281.21311.08071.447393.08622.664063.01563l2.8203145-.945318c.355657-.119055.74592-.02609 1.017578.244141l2.001953 2c.185692.185575.294922.436718.294922.701172v2.001953c0 .707528-.640981 1.167852-1.314453.951172-4.105779-1.320907-6.333584-2.140114-10.4082031-6.236328-4.0624728-4.083969-4.8720676-6.5421947-6.2226563-10.3789065-.2397672-.6811465.2200548-1.3378906.9433594-1.3378906zm10.003906 2.0019531c-1.304853.028176-1.304853 1.9718244 0 2 1.668702 0 2.996104 1.3273946 2.996094 2.9960938 0 1.3346352 2.001953 1.3346352 2.001953 0 .000017-2.7495685-2.248451-4.9960938-4.998047-4.9960938z" transform="matrix(.265 0 0 .265 0 290.65)" font-variant-ligatures="normal" font-variant-position="normal" font-variant-caps="normal" font-variant-numeric="normal" font-variant-alternates="normal" font-feature-settings="normal" text-indent="0" text-align="start" text-decoration-line="none" text-decoration-style="solid" text-decoration-color="rgb(0,0,0)" text-transform="none" text-orientation="mixed" white-space="normal" shape-padding="0" isolation="auto" mix-blend-mode="normal" solid-color="rgb(0,0,0)" solid-opacity="1" vector-effect="none"></path></g></svg>